<?xml version="1.0"?>
<svg xmlns="http://www.w3.org/2000/svg" height="512px" viewBox="-5 0 392 392.66002" width="512px"><g><path d="m.328125 300h92.660156v92.660156h-92.660156zm0 0" fill="#F788A6" data-original="#F788A6"/><path d="m.328125 150h92.660156v92.660156h-92.660156zm0 0" fill="#F9C300" data-original="#F9C300"/><path d="m.328125 0h92.660156v92.660156h-92.660156zm0 0" fill="#4AD7ED" data-original="#4AD7ED"/><g fill="#d4e1f4"><path d="m372.988281 206.660156h-232.660156c-5.519531 0-10-4.476562-10-10 0-5.523437 4.480469-10 10-10h232.660156c5.523438 0 10 4.476563 10 10 0 5.523438-4.476562 10-10 10zm0 0" data-original="#BDBDBD" class="active-path" style="fill:#BDBDBD"/><path d="m372.988281 56.660156h-232.660156c-5.519531 0-10-4.476562-10-10 0-5.523437 4.480469-10 10-10h232.660156c5.523438 0 10 4.476563 10 10 0 5.523438-4.476562 10-10 10zm0 0" data-original="#BDBDBD" class="active-path" style="fill:#BDBDBD"/><path d="m372.988281 356.660156h-232.660156c-5.519531 0-10-4.476562-10-10 0-5.523437 4.480469-10 10-10h232.660156c5.523438 0 10 4.476563 10 10 0 5.523438-4.476562 10-10 10zm0 0" data-original="#BDBDBD" class="active-path" style="fill:#BDBDBD"/></g></g> </svg>
